**ABCDEFGHIJKLMNOPQRSTUVWXYZabcdefghijklmnopqrstuvwxyz**************************
**PARASOLID !"#$%&'()*+,-./:;<=>?@[\]^_`{|}~0123456789**************************
**PART1;
MC=unknown;
MC_MODEL=unknown;
MC_ID=unknown;
OS=unknown;
OS_RELEASE=unknown;
FRU=sdl_parasolid_customer_support;
APPL=parasolid_acceptance_tests;
SITE=unknown;
USER=unknown;
FORMAT=text;
GUISE=transmit;
KEY=/lore/hakimm2/xxxxxx_mesh_models_for_tests/1x1_square/1x1_square_nat.x_t;
FILE=/lore/hakimm2/xxxxxx_mesh_models_for_tests/1x1_square/1x1_square_nat.x_t;
DATE=unknown;
**PART2;
SCH=SCH_3200152_32001;
USFLD_SIZE=1;
**PART3;
**END_OF_HEADER*****************************************************************
T51 : TRANSMIT FILE created by modeller version 320015223 SCH_3200152_32001_1300
6227 1 12 34 CCCCCCI4 mesh1006 0 I8 polyline1008 0 CCCCCCCDI5 owner1040 0 CCCCCC
I13 boundary_mesh1006 0 I17 boundary_polyline1008 0 CCCA16 index_map_offset0 0 1
 dA9 index_map82 0 A17 node_id_index_map82 0 A20 schema_embedding_map82 0 A5 chi
ld12 0 A14 lowest_node_id0 0 1 dA16 mesh_offset_data206 0 Z1 53 2 3 0 0 0 0 0 0
 1e3 1e-8 0 0 0 1 0 3 1 4 5 6 7 0 0 8 9 10 0 0 0 0 0 0 0 0 81 255 1 2 53 11 1 12
 0 0 0 13 0 70 11 CI9 list_type0 0 1 uI10 notransmit0 0 1 lCCCDCCDI12 finger_ind
ex0 0 1 dI12 finger_block1012 0 CZ3 0 4 T1 0 0 5 20 1 14 14 0 13 255 4 3 0 1 0 1
5 0 0 8 15 0 50 255 5 6 0 15 0 0 0 +.75 .75 0 0 0 1 1 0 0 0 30 255 6 33 0 1 16 0
 17 -0 1 0 0 -1 0 0 29 255 7 21 0 18 19 0 1 0 0 0 19 8 CCCCCCCA5 owner12 0 Z8 5
 0 1 0 0 4 V0 0 16 255 9 7 20 ?21 0 22 23 0 0 1 0 18 255 10 16 0 24 0 25 26 1e-5
 1 0 17 255 24 0 27 21 28 10 29 22 0 30 +0 18 25 14 0 28 10 31 32 1e-5 1 0 29 26
 18 0 10 0 32 1 1 0 0 29 32 19 0 25 26 19 0 1 0 0 29 19 20 0 31 32 7 0 0 0 0 18
 31 12 0 33 25 18 19 1e-5 1 0 17 33 0 27 28 21 31 34 35 0 36 +0 18 18 11 0 34 31
 0 7 1e-5 1 0 17 34 0 0 0 0 18 33 35 0 21 -0 16 35 13 37 ?33 38 0 39 0 0 1 0 17
 21 0 27 33 24 18 30 9 0 0 +0 15 255 27 8 0 21 15 0 0 17 30 0 0 0 0 10 21 9 0 0
 -0 14 255 15 2 40 ?0 0 27 4 5 -0 0 0 0 4 0 81 1 40 52 41 15 42 0 0 0 43 0 80 25
5 1 41 0 44 8001 0 0 0 0 3 5 0 0 0 FFFFTFTFFFFFFF2 0 81 1 42 50 45 15 0 40 37 0
 46 0 83 255 3 43 .5019608 .6352941 .7058824 0 80 1 45 47 48 9000 1 1 1 1 1 1 1
 1 0 FFFFTFTFFFFFFF3 0 81 1 37 49 45 35 0 0 49 42 50 0 84 255 32 46 8eb1441691cf
3e5e9d2f89fdddeb76010 81 1 49 48 45 38 0 0 20 37 51 0 84 32 50 81d44325e691c0514
3b4f71a4cc2ec430 16 38 15 49 ?28 22 35 16 0 0 1 0 81 1 20 47 45 9 0 0 52 49 53 0
 84 32 51 21918cf3a2255dbe2478a0f062a5e66c0 81 1 52 46 45 22 0 0 0 20 54 0 84 32
 53 61967c0bef9ae70fd670b1ffa37468780 16 22 17 52 ?24 9 38 55 0 0 1 0 84 32 54 e
a28e29f1b351f5a6913bf2fd692686d0 133 255 55 30 0 22 56 57 0 +57 0 1 0 1 1 0 1 0
 0 30 56 29 0 1 23 55 58 -1 0 0 0 1 0 0 30 57 31 0 1 55 16 59 -1 1 0 -1 0 0 0 13
3 16 32 0 38 57 6 0 +6 0 0 0 0 1 0 1 0 0 141 255 59 55 59 59 57 0 133 23 28 0 9
 60 56 0 +56 1 1 0 1 0 0 1 0 0 141 58 23 58 58 56 0 30 60 27 0 1 39 23 61 -0 0 0
 1 0 0 0 133 39 26 0 35 0 60 0 +60 1 0 0 0 0 0 1 0 0 141 61 39 61 61 60 0 17 28
 0 27 24 33 25 36 38 0 29 +0 17 36 0 0 0 0 31 28 38 0 0 -0 17 29 0 0 0 0 25 24 2
2 0 0 -0 79 255 15 48 UGS/ObjectState0 79 15 44 SDL/TYSA_COLOUR0 141 17 16 17 17
 6 0 74 4 CI16 index_map_offset0 0 1 dCCZ20 14 5 0 0 62 42 12 40 2 0 0 0 0 0 0 0
 0 0 0 0 0 0 0 0 0 81 2 62 45 63 1 0 12 0 0 64 65 0 81 1 12 51 66 1 62 2 0 0 67
 0 80 1 66 45 68 9000 0 0 0 0 3 5 0 0 0 FFTFFFFFFFFFFF1 0 82 255 1 67 9 0 79 7 6
8 body_id0 80 2 63 69 70 8004 0 0 0 0 3 5 0 0 0 FFTFFFFFFFFFFF2 3 0 83 1 64 7830
.64 0 84 8 65 Kg/Cu M 0 79 16 70 SDL/TYSA_DENSITY0 80 1 11 66 71 9000 0 0 0 0 3
 5 0 0 0 FFTFFFFFFFFFFF1 0 82 1 13 171 0 79 24 71 UG2/BODY_COLOR_ATTRIBUTE0 1 0
 
